<svg width="1774" height="500" viewBox="0 0 1774 500" fill="none" xmlns="http://www.w3.org/2000/svg">
<path d="M1422.76 397.298C1408.42 397.298 1399.49 381.704 1406.72 369.286L1558.18 108.961C1561.74 102.853 1568.26 99.0977 1575.31 99.0977H1602.1C1609.16 99.0977 1615.68 102.853 1619.23 108.961L1770.7 369.286C1777.92 381.704 1768.99 397.298 1754.65 397.298C1747.85 397.298 1741.6 393.575 1738.34 387.591L1706.45 328.984C1706.45 328.97 1706.43 328.961 1706.42 328.961C1706.4 328.961 1706.39 328.953 1706.38 328.939L1687.81 297.92C1687.81 297.911 1687.82 297.898 1687.83 297.898C1687.84 297.898 1687.85 297.886 1687.84 297.876L1605.92 154.154C1598.31 140.798 1579.1 140.798 1571.49 154.154L1489.58 297.874C1489.57 297.885 1489.58 297.898 1489.59 297.898C1489.6 297.898 1489.61 297.912 1489.6 297.923L1471.4 328.817C1471.34 328.906 1471.25 328.961 1471.14 328.961C1471.04 328.961 1470.94 329.019 1470.89 329.113L1439.07 387.591C1435.82 393.575 1429.56 397.298 1422.76 397.298Z" fill="white"/>
<path d="M1373.92 283.823C1366.06 283.823 1359.26 289.007 1356.09 296.192C1338.33 336.47 1298.04 364.585 1251.19 364.585C1187.91 364.585 1136.61 313.283 1136.61 249.999C1136.61 186.715 1187.91 135.412 1251.19 135.412C1298.16 135.412 1338.52 163.665 1356.22 204.101C1359.37 211.311 1366.19 216.52 1374.06 216.52C1385.56 216.52 1394.09 205.776 1389.86 195.088C1367.99 139.916 1314.15 100.898 1251.19 100.898C1168.85 100.898 1102.09 167.653 1102.09 249.999C1102.09 332.345 1168.85 399.099 1251.19 399.099C1314 399.099 1367.74 360.265 1389.7 305.299C1393.98 294.602 1385.43 283.823 1373.92 283.823Z" fill="white"/>
<path d="M1009.77 396.019C999.545 396.019 991.258 387.711 991.258 377.461V117.655C991.258 107.406 999.545 99.0977 1009.77 99.0977C1019.99 99.0977 1028.28 107.406 1028.28 117.655V377.461C1028.28 387.711 1019.99 396.019 1009.77 396.019Z" fill="white"/>
<path d="M1008.48 360.651H948.001C937.752 360.651 929.443 368.938 929.443 379.161C929.443 389.383 937.752 397.671 948.001 397.671H1008.48V360.651Z" fill="white"/>
<path d="M1005.05 397.671H1070.34C1080.59 397.671 1088.9 389.383 1088.9 379.161C1088.9 368.938 1080.59 360.651 1070.34 360.651H1005.05V397.671Z" fill="white"/>
<path fill-rule="evenodd" clip-rule="evenodd" d="M882.929 182.394C882.929 175.831 881.637 169.332 879.125 163.268C876.613 157.205 872.932 151.695 868.291 147.054C863.65 142.413 858.141 138.732 852.077 136.221C846.019 133.711 839.526 132.419 832.969 132.416C832.963 132.416 832.957 132.416 832.951 132.416L691.348 132.416C682.147 132.416 674.688 124.958 674.688 115.757C674.688 106.556 682.147 99.0977 691.348 99.0977L832.951 99.0977C832.959 99.0977 832.967 99.0977 832.974 99.0977H833.782L833.784 99.0998L833.786 99.1018C844.441 99.2086 854.979 101.359 864.828 105.438C874.934 109.624 884.116 115.76 891.851 123.495C899.586 131.229 905.721 140.412 909.907 150.518C914.093 160.624 916.248 171.455 916.248 182.394C916.248 193.333 914.093 204.164 909.907 214.27C905.721 224.376 899.586 233.559 891.851 241.293C884.116 249.028 874.934 255.164 864.828 259.35C854.979 263.429 844.441 265.579 833.786 265.686L833.784 265.688L833.782 265.69H739.66C733.096 265.69 726.597 266.983 720.534 269.495C714.47 272.006 708.961 275.688 704.32 280.328C699.679 284.969 695.998 290.479 693.486 296.542C690.975 302.606 689.682 309.105 689.682 315.668V380.639C689.682 389.84 682.223 397.298 673.023 397.298C663.822 397.298 656.363 389.84 656.363 380.639V314.837L656.365 314.835L656.367 314.833C656.474 304.179 658.624 293.641 662.704 283.792C666.89 273.686 673.025 264.503 680.76 256.769C688.495 249.034 697.677 242.898 707.783 238.712C717.632 234.633 728.17 232.483 738.825 232.376L738.827 232.374L738.829 232.372H832.951C839.515 232.372 846.014 231.079 852.077 228.567C858.141 226.056 863.65 222.374 868.291 217.734C872.932 213.093 876.613 207.583 879.125 201.52C881.637 195.456 882.929 188.957 882.929 182.394Z" fill="white"/>
<path fill-rule="evenodd" clip-rule="evenodd" d="M220.638 1.78543C136.445 14.395 66.1176 64.9105 27.865 140.253C11.3996 172.683 3.12344 204.709 0.832307 244.868L-4.53646e-05 259.455L67.4489 259.455C104.546 259.455 134.913 259.054 134.93 258.562C134.947 258.07 135.479 252.34 136.111 245.828C140.317 202.578 166.231 165.905 205.632 147.44C240.811 130.956 284.135 132.951 317.607 152.6C340.436 166 359.576 188.853 368.965 213.916C373.253 225.368 376.635 240.106 376.635 247.348C376.635 249.913 376.969 253.687 377.379 255.734L378.123 259.455L512.745 259.455L511.934 244.868C508.151 176.798 481.545 117.118 434.812 71.8709C394.973 33.3004 344.559 8.78149 290.524 1.69851C272.969 -0.603336 236.28 -0.556903 220.638 1.78543ZM1.52776 272.554L136.09 272.554L136.09 266.6L1.52776 266.6L1.52776 272.554ZM376.635 272.554L511.197 272.554L511.197 266.6L376.635 266.6L376.635 272.554ZM3.31398 285.058L138.639 285.674L137.876 280.295L2.55068 279.679L3.31398 285.058ZM374.253 281.937C374.253 283.974 375.669 284.247 390.031 284.978C409.717 285.98 510.006 285.401 510.006 284.286C510.006 283.835 510.331 282.619 510.729 281.583C511.383 279.879 504.916 279.699 442.852 279.699C376.514 279.699 374.253 279.773 374.253 281.937ZM3.90938 297.561L73.1041 297.561C135.711 297.561 142.23 297.382 141.576 295.678C141.178 294.642 140.853 293.302 140.853 292.701C140.853 292.049 113.169 291.607 72.3813 291.607L3.90938 291.607L3.90938 297.561ZM371.054 293.691C370.647 294.837 370.096 296.177 369.831 296.668C369.566 297.16 400.73 297.561 439.082 297.561L508.815 297.561L508.815 291.607L440.306 291.607C376.136 291.607 371.75 291.74 371.054 293.691ZM6.88642 310.065L147.928 310.679L145.939 305.302L6.12312 304.687L6.88642 310.065ZM366.155 306.135C361.634 310.657 362.189 310.69 435.282 310.372L505.838 310.065L506.599 304.706L437.092 304.706C384.618 304.706 367.234 305.056 366.155 306.135ZM9.42998 319.591C9.83129 320.901 10.3529 322.189 10.591 322.453C11.4746 323.437 139.38 323.913 147.161 322.963C154.569 322.058 155.125 321.798 153.71 319.911C152.28 318.001 146.86 317.824 80.4336 317.529C9.17753 317.212 8.70478 317.225 9.42998 319.591ZM359.011 319.234C354.378 323.867 354.659 323.883 429.788 323.516L501.994 323.164L503.976 317.805L432.208 317.805C377.975 317.805 360.091 318.154 359.011 319.234ZM12.7131 331.597C13.1108 332.633 13.4359 333.973 13.4359 334.574C13.4359 335.227 43.9255 335.667 89.0527 335.667C130.642 335.667 164.669 335.215 164.669 334.661C164.669 334.108 163.689 332.768 162.491 331.684C160.515 329.894 153.49 329.713 86.1519 329.713C19.0149 329.713 12.0593 329.892 12.7131 331.597ZM346.818 335.072L421.565 335.381C462.676 335.551 496.982 335.433 497.8 335.121C498.619 334.808 499.289 333.463 499.289 332.132C499.289 329.727 498.878 329.713 424.931 329.713L350.571 329.713L346.818 335.072ZM17.4763 344.696C17.8741 345.732 18.1992 347.072 18.1992 347.673C18.1992 348.326 50.6406 348.766 98.7864 348.766L179.375 348.766L173.78 342.812L95.2675 342.812C24.1628 342.812 16.8214 342.99 17.4763 344.696ZM336.015 345.062C333.24 347.309 333.248 347.311 345.707 348.104C352.566 348.541 388.721 348.734 426.053 348.534L493.93 348.171L494.691 342.812L416.741 342.812C342.099 342.812 338.675 342.908 336.015 345.062ZM30.5301 355.664C22.7469 355.98 22.0729 356.21 22.6302 358.343C23.2292 360.632 24.8451 360.673 111.52 360.622L199.799 360.57L195.035 358C190.302 355.447 189.791 355.43 114.655 355.373C73.066 355.342 35.21 355.472 30.5301 355.664ZM312.926 360.567L400.621 360.621C493.468 360.678 489.762 360.877 489.762 355.814C489.762 355.16 456.388 354.742 406.703 354.774L323.643 354.828L312.926 360.567ZM30.4896 373.774L133.502 373.774C190.16 373.774 236.278 373.537 235.989 373.247C235.699 372.957 230.41 371.617 224.235 370.27C213.442 367.914 209.442 367.82 120.393 367.82L27.7769 367.819L30.4896 373.774ZM286.728 370.657L277.202 373.178L379.016 373.487C473.679 373.774 480.936 373.652 482.319 371.771C483.139 370.657 483.808 369.313 483.808 368.783C483.808 368.253 441.609 367.891 390.031 367.978C298.577 368.132 296.019 368.197 286.728 370.657ZM36.0614 383.3C37.3284 385.669 38.555 385.682 256.277 385.682C454.824 385.682 475.285 385.507 475.94 383.798C476.338 382.762 476.663 381.69 476.663 381.416C476.663 381.142 377.241 380.919 255.725 380.919C35.1564 380.918 34.7884 380.922 36.0614 383.3ZM46.4739 398.185L465.667 398.788L469.573 392.827L42.9157 392.827L46.4739 398.185ZM52.7328 406.039C52.7328 406.428 53.6771 407.602 54.8322 408.647C56.7327 410.367 75.6953 410.57 256.26 410.8L455.588 411.052L459.756 405.33L256.244 405.33C144.312 405.33 52.7328 405.649 52.7328 406.039ZM63.4501 418.807C63.4501 419.378 64.4302 420.733 65.6281 421.817C67.6347 423.633 82.6032 423.788 256.712 423.788C442.259 423.788 445.64 423.747 446.851 421.485C447.529 420.218 448.084 418.909 448.084 418.577C448.084 418.243 361.541 417.926 255.767 417.87C146.954 417.812 63.4501 418.218 63.4501 418.807ZM76.5491 432.056C76.5491 432.674 77.7399 434.013 79.1963 435.033C81.5612 436.69 100.315 436.887 256.157 436.887L430.473 436.887L437.548 430.933L257.049 430.933C144.744 430.933 76.5491 431.357 76.5491 432.056ZM94.8269 448.795L416.527 448.709L423.672 442.853L89.2325 442.841L94.8269 448.795ZM108.11 457.139C111.049 461.894 109.273 461.838 257.142 461.831L398.665 461.825L405.81 455.952L256.59 455.946C156.709 455.942 107.615 456.336 108.11 457.139ZM127.754 468.639C127.754 468.832 129.867 470.068 132.448 471.386C137.059 473.738 139.304 473.781 256.902 473.814C373.878 473.846 376.763 473.791 381.112 471.496L385.566 469.144L269.461 468.904C205.604 468.773 147.597 468.58 140.555 468.476C133.514 468.372 127.754 468.446 127.754 468.639ZM153.952 481.495C153.952 481.796 157.491 483.136 161.817 484.472C169.43 486.823 172.479 486.901 256.362 486.901C340.246 486.901 343.294 486.823 350.907 484.472C355.233 483.136 358.772 481.796 358.772 481.495C358.772 481.194 312.688 480.947 256.362 480.947C200.037 480.947 153.952 481.194 153.952 481.495ZM198.608 495.855C211.973 498.79 228.831 500 256.362 500C283.894 500 300.751 498.79 314.117 495.855C320.339 494.488 312.884 494.285 256.362 494.285C199.84 494.285 192.386 494.488 198.608 495.855Z" fill="white"/>
</svg>
