<svg width="794" height="794" viewBox="0 0 794 794" fill="none" xmlns="http://www.w3.org/2000/svg">
<rect width="794" height="794" fill="#041C14"/>
<path fill-rule="evenodd" clip-rule="evenodd" d="M433.362 645.215C517.555 632.605 587.882 582.089 626.135 506.747C642.6 474.317 650.877 442.291 653.168 402.132L654 387.545L586.551 387.545C549.454 387.545 519.087 387.946 519.07 388.438C519.053 388.93 518.521 394.66 517.889 401.172C513.683 444.422 487.769 481.095 448.368 499.56C413.189 516.044 369.865 514.049 336.393 494.4C313.564 481 294.424 458.147 285.035 433.084C280.747 421.632 277.365 406.894 277.365 399.652C277.365 397.087 277.031 393.313 276.621 391.266L275.877 387.545L141.255 387.545L142.066 402.132C145.849 470.202 172.455 529.882 219.188 575.129C259.027 613.7 309.441 638.219 363.476 645.302C381.031 647.603 417.72 647.557 433.362 645.215ZM652.472 374.446L517.91 374.446L517.91 380.4L652.472 380.4L652.472 374.446ZM277.365 374.446L142.803 374.446L142.803 380.4L277.365 380.4L277.365 374.446ZM650.686 361.942L515.361 361.327L516.124 366.705L651.449 367.321L650.686 361.942ZM279.747 365.063C279.747 363.026 278.331 362.753 263.969 362.022C244.283 361.02 143.994 361.599 143.994 362.714C143.994 363.165 143.669 364.381 143.271 365.417C142.617 367.121 149.084 367.301 211.148 367.301C277.486 367.301 279.747 367.227 279.747 365.063ZM650.091 349.439L580.896 349.439C518.289 349.439 511.77 349.618 512.424 351.322C512.822 352.358 513.147 353.698 513.147 354.299C513.147 354.951 540.831 355.393 581.619 355.393L650.091 355.393L650.091 349.439ZM282.945 353.309C283.353 352.163 283.904 350.824 284.168 350.332C284.434 349.84 253.27 349.439 214.918 349.439L145.185 349.439L145.185 355.393L213.694 355.393C277.864 355.393 282.25 355.261 282.945 353.309ZM647.114 336.935L506.072 336.321L508.061 341.698L647.877 342.313L647.114 336.935ZM287.845 340.865C292.366 336.343 291.811 336.31 218.718 336.628L148.162 336.935L147.401 342.294L216.908 342.294C269.382 342.294 286.766 341.944 287.845 340.865ZM644.57 327.409C644.169 326.099 643.647 324.811 643.409 324.547C642.525 323.563 514.62 323.087 506.839 324.037C499.431 324.942 498.875 325.202 500.29 327.089C501.72 328.999 507.14 329.176 573.566 329.471C644.822 329.788 645.295 329.775 644.57 327.409ZM294.989 327.766C299.622 323.133 299.341 323.117 224.212 323.484L152.006 323.836L150.024 329.195L221.792 329.195C276.024 329.195 293.909 328.846 294.989 327.766ZM641.287 315.403C640.889 314.367 640.564 313.027 640.564 312.426C640.564 311.773 610.074 311.333 564.947 311.333C523.358 311.333 489.331 311.785 489.331 312.339C489.331 312.892 490.311 314.232 491.509 315.316C493.485 317.106 500.51 317.287 567.848 317.287C634.985 317.287 641.941 317.108 641.287 315.403ZM307.182 311.928L232.435 311.62C191.324 311.449 157.018 311.567 156.2 311.879C155.381 312.192 154.711 313.537 154.711 314.868C154.711 317.273 155.122 317.287 229.069 317.287L303.429 317.287L307.182 311.928ZM636.524 302.304C636.126 301.268 635.801 299.928 635.801 299.327C635.801 298.674 603.359 298.234 555.214 298.234L474.625 298.234L480.22 304.188L558.732 304.188C629.837 304.188 637.179 304.01 636.524 302.304ZM317.985 301.938C320.76 299.691 320.752 299.689 308.293 298.896C301.434 298.459 265.279 298.266 227.947 298.466L160.07 298.829L159.309 304.188L237.259 304.188C311.901 304.188 315.325 304.092 317.985 301.938ZM623.47 291.336C631.253 291.02 631.927 290.79 631.37 288.657C630.771 286.368 629.155 286.327 542.48 286.378L454.201 286.43L458.965 289C463.698 291.553 464.209 291.57 539.345 291.627C580.934 291.658 618.79 291.528 623.47 291.336ZM341.074 286.433L253.379 286.379C160.532 286.322 164.238 286.123 164.238 291.186C164.238 291.84 197.612 292.258 247.297 292.226L330.357 292.172L341.074 286.433ZM623.51 273.226L520.498 273.226C463.84 273.226 417.722 273.463 418.011 273.753C418.301 274.043 423.59 275.383 429.765 276.73C440.558 279.086 444.558 279.18 533.607 279.181L626.223 279.181L623.51 273.226ZM367.272 276.343L376.798 273.822L274.984 273.513C180.321 273.226 173.064 273.348 171.68 275.229C170.861 276.343 170.192 277.687 170.192 278.217C170.192 278.747 212.391 279.109 263.969 279.022C355.423 278.869 357.981 278.803 367.272 276.343ZM617.939 263.7C616.672 261.331 615.445 261.318 397.723 261.318C199.176 261.318 178.715 261.493 178.06 263.202C177.662 264.238 177.337 265.31 177.337 265.584C177.337 265.858 276.759 266.082 398.275 266.082C618.844 266.082 619.212 266.078 617.939 263.7ZM607.526 248.815L188.333 248.212L184.427 254.173L611.084 254.173L607.526 248.815ZM601.267 240.961C601.267 240.572 600.323 239.398 599.168 238.353C597.267 236.633 578.305 236.43 397.74 236.2L198.412 235.948L194.244 241.67L397.756 241.67C509.688 241.67 601.267 241.351 601.267 240.961ZM590.55 228.193C590.55 227.622 589.57 226.267 588.372 225.183C586.365 223.367 571.397 223.212 397.288 223.212C211.741 223.212 208.36 223.253 207.149 225.515C206.471 226.782 205.916 228.091 205.916 228.423C205.916 228.757 292.459 229.075 398.233 229.13C507.046 229.188 590.55 228.782 590.55 228.193ZM577.451 214.944C577.451 214.326 576.26 212.987 574.804 211.967C572.439 210.31 553.685 210.113 397.843 210.113L223.527 210.113L216.452 216.067L396.951 216.067C509.256 216.067 577.451 215.643 577.451 214.944ZM559.173 198.205L237.473 198.291L230.328 204.147L564.767 204.159L559.173 198.205ZM545.889 189.861C542.951 185.106 544.727 185.162 396.858 185.169L255.335 185.175L248.19 191.048L397.41 191.054C497.291 191.058 546.385 190.664 545.889 189.861ZM526.246 178.361C526.246 178.168 524.133 176.932 521.552 175.614C516.941 173.262 514.696 173.219 397.098 173.186C280.122 173.154 277.237 173.209 272.888 175.505L268.434 177.856L384.539 178.096C448.396 178.227 506.403 178.42 513.445 178.524C520.486 178.628 526.246 178.554 526.246 178.361ZM500.048 165.505C500.048 165.204 496.509 163.864 492.183 162.528C484.57 160.178 481.521 160.099 397.638 160.099C313.754 160.099 310.706 160.177 303.093 162.528C298.767 163.864 295.228 165.204 295.228 165.505C295.228 165.806 341.312 166.053 397.638 166.053C453.963 166.053 500.048 165.807 500.048 165.505ZM455.392 151.145C442.027 148.21 425.169 147 397.638 147C370.106 147 353.249 148.21 339.883 151.145C333.661 152.512 341.116 152.715 397.638 152.715C454.16 152.715 461.614 152.512 455.392 151.145Z" fill="white"/>
</svg>
