<svg width="736" height="269" viewBox="0 0 736 269" fill="none" xmlns="http://www.w3.org/2000/svg">
<path fill-rule="evenodd" clip-rule="evenodd" d="M0 65.905H36.9875H37.66V65.8973C53.3201 65.54 65.905 52.7334 65.905 36.9875V0H73.975V37.66C73.975 53.2593 86.6207 65.905 102.22 65.905C117.819 65.905 130.465 53.2593 130.465 37.66V0H138.535V37.66C138.535 53.2593 151.181 65.905 166.78 65.905C182.379 65.905 195.025 53.2593 195.025 37.66V0H204.44V37.66C204.44 53.2593 217.086 65.905 232.685 65.905H269V73.975H231.34C215.741 73.975 203.095 86.6207 203.095 102.22C203.095 117.819 215.741 130.465 231.34 130.465H269V138.535H231.34C215.741 138.535 203.095 151.181 203.095 166.78C203.095 182.379 215.741 195.025 231.34 195.025H269V203.095H232.685C217.086 203.095 204.44 215.741 204.44 231.34V232.685V269H195.025V231.34C195.025 215.741 182.379 203.095 166.78 203.095C151.181 203.095 138.535 215.741 138.535 231.34V269H130.465V231.34C130.465 215.741 117.819 203.095 102.22 203.095C86.6207 203.095 73.975 215.741 73.975 231.34V269H65.905V232.013C65.905 216.267 53.3201 203.459 37.66 203.103V203.095H36.9875H0V195.025H37.66C53.2593 195.025 65.905 182.379 65.905 166.78C65.905 151.181 53.2593 138.535 37.66 138.535H0V130.465H37.66C53.2593 130.465 65.905 117.819 65.905 102.22C65.905 86.6207 53.2593 73.975 37.66 73.975H0V65.905ZM102.22 130.465C117.819 130.465 130.465 117.819 130.465 102.22C130.465 86.6207 117.819 73.975 102.22 73.975C86.6207 73.975 73.975 86.6207 73.975 102.22C73.975 117.819 86.6207 130.465 102.22 130.465ZM166.78 130.465C182.379 130.465 195.025 117.819 195.025 102.22C195.025 86.6207 182.379 73.975 166.78 73.975C151.181 73.975 138.535 86.6207 138.535 102.22C138.535 117.819 151.181 130.465 166.78 130.465ZM130.465 166.78C130.465 182.379 117.819 195.025 102.22 195.025C86.6207 195.025 73.975 182.379 73.975 166.78C73.975 151.181 86.6207 138.535 102.22 138.535C117.819 138.535 130.465 151.181 130.465 166.78ZM166.78 195.025C182.379 195.025 195.025 182.379 195.025 166.78C195.025 151.181 182.379 138.535 166.78 138.535C151.181 138.535 138.535 151.181 138.535 166.78C138.535 182.379 151.181 195.025 166.78 195.025Z" fill="white"/>
<path d="M663.023 215.4C638.602 215.4 622.617 203.634 622.617 183.209C622.617 163.006 634.606 152.128 660.359 147.022L700.986 139.252C700.986 121.047 692.55 111.945 675.677 111.945C660.581 111.945 652.144 118.827 649.036 131.703L624.615 130.149C629.055 106.616 647.482 91.9639 675.677 91.9639C707.646 91.9639 724.519 109.946 724.519 140.584V186.539C724.519 192.311 726.517 194.087 730.957 194.087H735.175V212.736C733.621 213.18 729.847 213.402 726.517 213.402C712.975 213.402 704.982 208.296 702.984 194.531C696.99 206.964 681.449 215.4 663.023 215.4ZM667.019 196.752C688.11 196.752 700.986 183.431 700.986 164.56V157.012L666.575 163.672C652.366 166.336 647.038 171.887 647.038 180.989C647.038 191.201 654.364 196.752 667.019 196.752Z" fill="white"/>
<path d="M564.139 215.4C529.95 215.4 507.971 190.979 507.971 153.682C507.971 116.385 529.95 91.9639 564.139 91.9639C592.778 91.9639 612.981 107.504 616.755 134.811L592.334 136.143C589.892 120.825 579.013 112.389 564.139 112.389C544.158 112.389 532.392 127.707 532.392 153.682C532.392 179.657 544.158 194.975 564.139 194.975C579.013 194.975 589.892 186.539 592.334 169.445L616.755 170.777C612.981 197.862 593 215.4 564.139 215.4Z" fill="white"/>
<path d="M469.368 212.736V94.6274H492.901V212.736H469.368ZM468.924 77.5328V54H493.567V77.5328H468.924Z" fill="white"/>
<path d="M337 212.735V55.1094H395.832C431.798 55.1094 453.11 73.536 453.11 104.173C453.11 135.032 431.798 153.681 395.832 153.681H360.977V212.735H337ZM395.166 131.924C416.923 131.924 428.245 122.378 428.245 104.173C428.245 86.1904 416.923 77.0881 395.166 77.0881H360.977V131.924H395.166Z" fill="white"/>
</svg>
