<svg width="269" height="269" viewBox="0 0 269 269" fill="none" xmlns="http://www.w3.org/2000/svg">
<path fill-rule="evenodd" clip-rule="evenodd" d="M0 65.905H36.9875H37.66V65.8973C53.3201 65.54 65.905 52.7334 65.905 36.9875V0H73.975V37.66C73.975 53.2593 86.6207 65.905 102.22 65.905C117.819 65.905 130.465 53.2593 130.465 37.66V0H138.535V37.66C138.535 53.2593 151.181 65.905 166.78 65.905C182.379 65.905 195.025 53.2593 195.025 37.66V0H204.44V37.66C204.44 53.2593 217.086 65.905 232.685 65.905H269V73.975H231.34C215.741 73.975 203.095 86.6207 203.095 102.22C203.095 117.819 215.741 130.465 231.34 130.465H269V138.535H231.34C215.741 138.535 203.095 151.181 203.095 166.78C203.095 182.379 215.741 195.025 231.34 195.025H269V203.095H232.685C217.086 203.095 204.44 215.741 204.44 231.34V232.685V269H195.025V231.34C195.025 215.741 182.379 203.095 166.78 203.095C151.181 203.095 138.535 215.741 138.535 231.34V269H130.465V231.34C130.465 215.741 117.819 203.095 102.22 203.095C86.6207 203.095 73.975 215.741 73.975 231.34V269H65.905V232.013C65.905 216.267 53.3201 203.459 37.66 203.103V203.095H36.9875H0V195.025H37.66C53.2593 195.025 65.905 182.379 65.905 166.78C65.905 151.181 53.2593 138.535 37.66 138.535H0V130.465H37.66C53.2593 130.465 65.905 117.819 65.905 102.22C65.905 86.6207 53.2593 73.975 37.66 73.975H0V65.905ZM102.22 130.465C117.819 130.465 130.465 117.819 130.465 102.22C130.465 86.6207 117.819 73.975 102.22 73.975C86.6207 73.975 73.975 86.6207 73.975 102.22C73.975 117.819 86.6207 130.465 102.22 130.465ZM166.78 130.465C182.379 130.465 195.025 117.819 195.025 102.22C195.025 86.6207 182.379 73.975 166.78 73.975C151.181 73.975 138.535 86.6207 138.535 102.22C138.535 117.819 151.181 130.465 166.78 130.465ZM130.465 166.78C130.465 182.379 117.819 195.025 102.22 195.025C86.6207 195.025 73.975 182.379 73.975 166.78C73.975 151.181 86.6207 138.535 102.22 138.535C117.819 138.535 130.465 151.181 130.465 166.78ZM166.78 195.025C182.379 195.025 195.025 182.379 195.025 166.78C195.025 151.181 182.379 138.535 166.78 138.535C151.181 138.535 138.535 151.181 138.535 166.78C138.535 182.379 151.181 195.025 166.78 195.025Z" fill="white"/>
</svg>
